<?xml version="1.0" standalone="no"?>
<!DOCTYPE svg PUBLIC "-//W3C//DTD SVG 20010904//EN"
 "http://www.w3.org/TR/2001/REC-SVG-20010904/DTD/svg10.dtd">
<svg version="1.0" xmlns="http://www.w3.org/2000/svg"
 width="512.000000pt" height="512.000000pt" viewBox="0 0 512.000000 512.000000"
 preserveAspectRatio="xMidYMid meet">
<metadata>
Created by potrace 1.14, written by Peter Selinger 2001-2017
</metadata>
<g transform="translate(0.000000,512.000000) scale(0.100000,-0.100000)"
fill="#000000" stroke="none">
<path d="M2195 5024 c-202 -36 -405 -116 -564 -221 -104 -70 -277 -238 -359
-351 -192 -261 -338 -627 -399 -1000 l-18 -111 -35 -6 c-107 -20 -192 -110
-235 -248 -46 -145 -58 -657 -19 -827 22 -95 77 -201 139 -268 95 -103 218
-150 368 -140 l73 5 0 -256 c-1 -233 1 -265 22 -361 110 -494 488 -924 942
-1073 166 -55 219 -62 460 -62 246 0 301 8 470 67 452 160 828 590 924 1058
31 153 38 251 31 439 l-7 184 41 -6 c72 -9 180 11 257 48 128 62 223 190 271
365 15 56 18 106 17 355 -1 319 -10 411 -50 510 -49 122 -123 191 -226 210
-35 7 -35 7 -42 67 -9 86 -52 274 -93 408 -152 495 -436 876 -793 1064 -114
60 -297 120 -446 146 -99 17 -158 20 -383 19 -181 -1 -291 -5 -346 -15z m-6
-158 c-9 -9 -204 -78 -258 -92 -80 -21 -207 -110 -328 -232 -152 -152 -220
-261 -274 -441 -42 -138 -57 -240 -69 -461 -6 -107 -14 -217 -18 -245 l-8 -50
-49 5 c-28 3 -83 5 -123 5 l-74 0 6 40 c20 126 90 366 153 520 200 492 493
796 878 914 103 31 175 47 164 37z m996 -65 c244 -91 482 -309 649 -594 120
-204 224 -484 281 -752 23 -108 31 -100 -99 -102 l-114 -2 -6 57 c-3 31 -8
118 -11 192 -16 361 -60 532 -186 736 -104 169 -366 405 -482 434 -63 16 -217
74 -217 82 0 8 105 -21 185 -51z m-738 -158 c57 -117 163 -205 301 -251 70
-23 91 -26 227 -25 109 1 174 6 237 21 l88 19 52 -45 c56 -48 151 -112 166
-112 5 0 12 -24 15 -53 14 -112 44 -165 126 -219 80 -54 164 -263 208 -520 l5
-28 -1302 0 -1302 0 6 28 c3 15 8 88 11 162 7 150 22 299 32 325 4 12 12 -2
25 -44 23 -74 40 -75 49 -4 14 109 80 256 168 373 51 67 201 218 258 258 l33
23 -8 -33 c-4 -18 -7 -91 -7 -163 0 -119 2 -134 25 -179 25 -50 53 -76 66 -63
4 4 0 15 -9 25 -21 23 -21 43 -1 139 51 248 225 399 486 422 12 1 26 -17 45
-56z m-1127 -1406 c0 -66 32 -338 44 -378 37 -120 91 -188 175 -220 51 -19 84
-21 386 -26 l330 -5 45 24 c58 31 118 118 149 216 25 82 50 232 51 307 1 89 5
95 65 95 l53 0 7 -72 c24 -270 65 -410 145 -502 59 -67 81 -70 443 -63 255 5
331 9 368 22 130 45 196 180 213 435 13 184 14 190 46 190 28 0 29 -2 34 -62
3 -35 8 -116 11 -180 l6 -118 -50 -149 c-158 -466 -348 -759 -533 -822 -44
-15 -56 -15 -88 -4 -62 22 -96 42 -154 93 -99 87 -227 116 -501 116 -275 0
-414 -34 -501 -121 -44 -44 -143 -96 -183 -96 -15 0 -53 12 -85 26 -175 80
-373 405 -509 836 l-44 136 12 170 c7 94 13 171 14 173 0 1 12 2 26 2 20 0 25
-5 25 -23z"/>
</g>
</svg>
